<svg width="40" height="60" viewBox="0 0 40 60" fill="none" xmlns="http://www.w3.org/2000/svg">
<path d="M20.0002 0C9.35695 0 0.727051 8.6299 0.727051 19.2731C0.727051 28.0863 6.64595 35.5192 14.724 37.8147C15.646 38.0767 16.3298 38.8896 16.3298 39.848V42.401C16.3298 43.5056 15.4344 44.401 14.3298 44.401H10.0641C8.95948 44.401 8.06405 45.2964 8.06405 46.401V49.738C8.06405 50.8426 8.95948 51.738 10.0641 51.738H14.3298C15.4343 51.738 16.3298 52.6334 16.3298 53.738V58C16.3298 59.1046 17.2252 60 18.3298 60H21.6668C22.7713 60 23.6668 59.1046 23.6668 58V53.738C23.6668 52.6334 24.5622 51.738 25.6668 51.738H29.9325C31.037 51.738 31.9325 50.8426 31.9325 49.738V46.401C31.9325 45.2964 31.037 44.401 29.9325 44.401H25.6668C24.5622 44.401 23.6668 43.5056 23.6668 42.401V38.197C32.5558 36.4836 39.2733 28.6619 39.2733 19.2731C39.2733 8.6299 30.6434 0 20.0002 0ZM20.0002 7.6639C26.4117 7.6639 31.6094 12.8615 31.6094 19.2731C31.6094 25.6847 26.4118 30.8823 20.0002 30.8823C13.5886 30.8823 8.39095 25.6847 8.39095 19.2731C8.39095 12.8615 13.5886 7.6639 20.0002 7.6639Z" fill="#FF8787"/>
</svg>
