<svg width="36" height="36" viewBox="0 0 36 36" fill="none" xmlns="http://www.w3.org/2000/svg">
<g filter="url(#filter0_ii_107_8599)">
<path d="M23.849 0C22.7444 0 21.849 0.895431 21.849 2V3.01246C21.849 4.11703 22.7444 5.01246 23.849 5.01246H27.3538L20.0977 12.1752C18.0617 10.8659 15.6348 10.106 13.029 10.106C5.83368 10.106 1.17167e-10 15.9021 1.17167e-10 23.0524C-3.01887e-05 30.2028 5.83368 36 13.029 36C20.2244 36 26.0569 30.2028 26.0569 23.0524C26.0569 20.3345 25.2146 17.8123 23.7746 15.7297L30.9089 8.64009V12.0625C30.9089 13.1671 31.8043 14.0625 32.9089 14.0625H33.9529C35.0574 14.0625 35.9528 13.1674 35.9557 12.0629C35.9642 8.81008 35.9893 5.24664 35.9975 1.99927C36.0002 0.894845 35.1048 0 34.0004 0H23.849ZM13.029 15.3173C17.3283 15.3173 20.8129 18.7801 20.8129 23.0524C20.8129 27.3248 17.3283 30.7888 13.029 30.7888C8.72978 30.7888 5.244 27.3248 5.244 23.0524C5.244 18.7801 8.72975 15.3173 13.029 15.3173Z" fill="#23C2EF"/>
</g>
<defs>
<filter id="filter0_ii_107_8599" x="-1" y="-3" width="36.9976" height="41" filterUnits="userSpaceOnUse" color-interpolation-filters="sRGB">
<feFlood flood-opacity="0" result="BackgroundImageFix"/>
<feBlend mode="normal" in="SourceGraphic" in2="BackgroundImageFix" result="shape"/>
<feColorMatrix in="SourceAlpha" type="matrix" values="0 0 0 0 0 0 0 0 0 0 0 0 0 0 0 0 0 0 127 0" result="hardAlpha"/>
<feOffset dy="-3"/>
<feGaussianBlur stdDeviation="2"/>
<feComposite in2="hardAlpha" operator="arithmetic" k2="-1" k3="1"/>
<feColorMatrix type="matrix" values="0 0 0 0 0 0 0 0 0 0 0 0 0 0 0 0 0 0 0.25 0"/>
<feBlend mode="normal" in2="shape" result="effect1_innerShadow_107_8599"/>
<feColorMatrix in="SourceAlpha" type="matrix" values="0 0 0 0 0 0 0 0 0 0 0 0 0 0 0 0 0 0 127 0" result="hardAlpha"/>
<feOffset dx="-1" dy="2"/>
<feGaussianBlur stdDeviation="1.5"/>
<feComposite in2="hardAlpha" operator="arithmetic" k2="-1" k3="1"/>
<feColorMatrix type="matrix" values="0 0 0 0 1 0 0 0 0 1 0 0 0 0 1 0 0 0 0.57 0"/>
<feBlend mode="normal" in2="effect1_innerShadow_107_8599" result="effect2_innerShadow_107_8599"/>
</filter>
</defs>
</svg>
