<?xml version="1.0" standalone="no"?>
<!DOCTYPE svg PUBLIC "-//W3C//DTD SVG 20010904//EN"
 "http://www.w3.org/TR/2001/REC-SVG-20010904/DTD/svg10.dtd">
<svg version="1.0" xmlns="http://www.w3.org/2000/svg"
 width="259.000000pt" height="259.000000pt" viewBox="0 0 259.000000 259.000000"
 preserveAspectRatio="xMidYMid meet">
<metadata>
Created by potrace 1.14, written by Peter Selinger 2001-2017
</metadata>
<g transform="translate(0.000000,259.000000) scale(0.100000,-0.100000)"
fill="#000000" stroke="none">
<path d="M1783 1752 c-16 -2 -23 -10 -24 -25 -4 -136 -2 -357 3 -357 4 0 5 -6
3 -12 -8 -21 -10 -188 -3 -188 4 0 4 -10 -1 -22 -4 -11 -6 -32 -3 -45 4 -22 9
-23 77 -23 50 0 74 4 77 13 3 10 2 599 -1 647 -1 11 -14 15 -53 15 -29 0 -63
-1 -75 -3z"/>
<path d="M1400 1710 l-45 -5 -5 -60 c-4 -44 -9 -60 -20 -61 -8 -1 -21 -2 -27
-2 -9 -2 -13 -21 -13 -62 0 -61 3 -65 43 -61 15 2 17 -9 18 -111 1 -152 5
-176 37 -213 31 -36 86 -55 158 -55 l64 0 0 65 c0 69 -2 71 -61 66 -35 -4 -43
33 -40 186 l1 62 38 -1 c64 -1 62 -2 62 62 0 41 -4 60 -12 61 -7 1 -27 2 -45
3 -17 1 -34 4 -38 8 -4 3 -7 30 -8 59 -2 51 -3 53 -32 59 -16 3 -50 3 -75 0z"/>
<path d="M281 1584 c-24 -7 -56 -25 -71 -39 l-28 -27 3 31 c3 36 9 33 -82 35
l-73 2 0 -373 0 -373 78 0 77 0 -1 150 c0 130 5 172 18 142 2 -4 17 -18 35
-30 36 -25 109 -34 163 -19 78 21 147 108 156 196 2 22 4 43 6 48 7 25 -16
121 -38 155 -60 95 -146 131 -243 102z m76 -150 c39 -25 58 -94 40 -146 -22
-66 -112 -100 -165 -62 -48 33 -62 114 -31 176 29 57 97 71 156 32z"/>
<path d="M855 1582 c-68 -19 -120 -59 -147 -112 -28 -56 -29 -61 -30 -140 -1
-46 5 -79 20 -113 23 -52 30 -60 82 -98 95 -70 257 -54 336 32 34 38 57 86 45
93 -4 3 -40 5 -80 4 -60 -1 -75 -5 -97 -25 -49 -45 -143 -15 -150 49 l-2 25
173 -1 c167 -1 174 0 177 19 6 40 -13 127 -36 164 -24 37 -79 90 -97 92 -5 1
-12 2 -16 4 -83 22 -121 24 -178 7z m114 -123 c31 -11 51 -35 51 -62 0 -11
-20 -14 -95 -14 -91 0 -95 1 -89 20 18 56 69 78 133 56z"/>
<path d="M2036 1582 c-2 -2 2 -15 9 -30 12 -24 164 -386 184 -437 5 -13 -8
-54 -46 -138 -29 -65 -53 -123 -53 -128 0 -5 35 -9 78 -9 76 0 79 1 92 28 19
42 119 275 125 292 3 8 25 63 39 95 90 205 126 295 126 313 0 17 -8 19 -77 18
l-76 -2 -54 -149 c-30 -83 -56 -152 -58 -154 -5 -4 -14 18 -51 119 -13 36 -34
92 -46 125 l-23 60 -83 1 c-45 0 -84 -1 -86 -4z"/>
</g>
</svg>
