<svg width="24" height="24" viewBox="0 0 24 24" fill="none" xmlns="http://www.w3.org/2000/svg">
<path d="M11.9997 0.333374C5.55967 0.333374 0.333008 5.56004 0.333008 12C0.333008 18.44 5.55967 23.6667 11.9997 23.6667C18.4397 23.6667 23.6663 18.44 23.6663 12C23.6663 5.56004 18.4397 0.333374 11.9997 0.333374ZM11.9997 5.00004C14.2513 5.00004 16.083 6.83171 16.083 9.08337C16.083 11.335 14.2513 13.1667 11.9997 13.1667C9.74801 13.1667 7.91634 11.335 7.91634 9.08337C7.91634 6.83171 9.74801 5.00004 11.9997 5.00004ZM11.9997 21.3334C9.63134 21.3334 6.83134 20.3767 4.83634 17.9734C6.87988 16.37 9.40223 15.4986 11.9997 15.4986C14.5971 15.4986 17.1195 16.37 19.163 17.9734C17.168 20.3767 14.368 21.3334 11.9997 21.3334Z" fill="white"/>
</svg>
