<svg width="20" height="20" viewBox="0 0 16 16" fill="currentColor" xmlns="http://www.w3.org/2000/svg">
<path d="M9.09654 7.99971L15.5443 1.55193C15.6717 1.40314 15.7383 1.21175 15.7308 1.016C15.7232 0.820254 15.642 0.634568 15.5035 0.49605C15.365 0.357532 15.1793 0.276384 14.9836 0.268823C14.7878 0.261263 14.5964 0.327845 14.4476 0.455266L7.99987 6.90304L1.55209 0.447488C1.40563 0.30103 1.20699 0.21875 0.999871 0.21875C0.792747 0.21875 0.594107 0.30103 0.447648 0.447488C0.30119 0.593946 0.21891 0.792587 0.21891 0.99971C0.21891 1.20683 0.30119 1.40547 0.447648 1.55193L6.9032 7.99971L0.447648 14.4475C0.366229 14.5172 0.300102 14.603 0.253418 14.6995C0.206733 14.796 0.180498 14.9011 0.176361 15.0082C0.172223 15.1153 0.190272 15.2222 0.229375 15.322C0.268477 15.4218 0.327789 15.5124 0.403587 15.5882C0.479385 15.664 0.570033 15.7233 0.669842 15.7624C0.76965 15.8015 0.876464 15.8196 0.983579 15.8154C1.09069 15.8113 1.1958 15.7851 1.29229 15.7384C1.38879 15.6917 1.47459 15.6256 1.54431 15.5442L7.99987 9.09638L14.4476 15.5442C14.5964 15.6716 14.7878 15.7382 14.9836 15.7306C15.1793 15.723 15.365 15.6419 15.5035 15.5034C15.642 15.3649 15.7232 15.1792 15.7308 14.9834C15.7383 14.7877 15.6717 14.5963 15.5443 14.4475L9.09654 7.99971Z" />
</svg>
