<svg width="11" height="11" viewBox="0 0 11 11" fill="currentColor" xmlns="http://www.w3.org/2000/svg">
<path d="M1.0522 10.4687C0.97994 10.4686 0.908496 10.4534 0.842412 10.4242C0.776328 10.395 0.717049 10.3523 0.668346 10.2989C0.618762 10.246 0.580926 10.1832 0.557319 10.1146C0.533712 10.046 0.524868 9.97323 0.531367 9.901L0.658971 8.49787L6.55376 2.60516L8.39595 4.44683L2.50272 10.339L1.0996 10.4666C1.08384 10.4681 1.06802 10.4688 1.0522 10.4687ZM8.76366 4.0786L6.92199 2.23693L8.02668 1.13225C8.07505 1.08382 8.13249 1.0454 8.19572 1.01919C8.25895 0.992983 8.32672 0.979492 8.39517 0.979492C8.46361 0.979492 8.53139 0.992983 8.59462 1.01919C8.65784 1.0454 8.71529 1.08382 8.76366 1.13225L9.86835 2.23693C9.91677 2.2853 9.95519 2.34275 9.9814 2.40597C10.0076 2.4692 10.0211 2.53698 10.0211 2.60542C10.0211 2.67387 10.0076 2.74164 9.9814 2.80487C9.95519 2.8681 9.91677 2.92554 9.86835 2.97391L8.76418 4.07808L8.76366 4.0786Z" fill="#F59256"/>
</svg>
